<svg width="88" height="88" viewBox="0 0 88 88" fill="none" xmlns="http://www.w3.org/2000/svg">
<path d="M43.8866 49.7613C22.5117 49.7613 6.13672 40.8863 6.13672 60.7613C6.13672 76.7613 27.2617 81.1363 43.3866 81.1363C62.1366 81.1363 81.1365 76.7613 81.1365 60.7613C81.1365 40.8863 65.8866 49.7613 43.8866 49.7613Z" fill="#89664C"/>
<path d="M43.2616 29.7617C31.2617 29.7617 12.6367 31.1367 12.6367 45.5117C12.6367 66.5117 74.5116 66.5117 74.5116 45.5117C74.6366 31.1367 56.0116 29.7617 43.2616 29.7617Z" fill="#9B7861"/>
<path d="M64.8863 24.5113C59.1363 11.6363 31.8863 24.8863 36.6363 9.26127C37.3863 6.88627 37.2613 5.88627 35.5113 6.26127C25.7613 8.26127 18.6364 18.2613 21.1364 26.6363C29.1363 53.3863 72.7612 42.0113 64.8863 24.5113Z" fill="#A88673"/>
<path d="M39.6347 46.5117C39.6347 51.5117 35.6347 55.5117 30.6347 55.5117C25.6348 55.5117 21.6348 51.5117 21.6348 46.5117C21.6348 41.5117 25.6348 37.5117 30.6347 37.5117C35.6347 37.5117 39.6347 41.5117 39.6347 46.5117Z" fill="white"/>
<path d="M33.1367 54.0352C35.622 54.0352 37.6367 52.0204 37.6367 49.5352C37.6367 47.0499 35.622 45.0352 33.1367 45.0352C30.6514 45.0352 28.6367 47.0499 28.6367 49.5352C28.6367 52.0204 30.6514 54.0352 33.1367 54.0352Z" fill="#373737"/>
<path d="M65.6367 46.5117C65.6367 51.5117 61.6367 55.5117 56.6367 55.5117C51.6367 55.5117 47.6367 51.5117 47.6367 46.5117C47.6367 41.5117 51.6367 37.5117 56.6367 37.5117C61.5117 37.5117 65.6367 41.5117 65.6367 46.5117Z" fill="white"/>
<path d="M58.6719 54.0352C61.1571 54.0352 63.1719 52.0204 63.1719 49.5352C63.1719 47.0499 61.1571 45.0352 58.6719 45.0352C56.1866 45.0352 54.1719 47.0499 54.1719 49.5352C54.1719 52.0204 56.1866 54.0352 58.6719 54.0352Z" fill="#373737"/>
<path d="M51.1367 66.8857C51.1367 71.0107 47.7617 74.3857 43.6367 74.3857C39.5117 74.3857 36.1367 71.0107 36.1367 66.8857C36.1367 62.7607 39.5117 59.3857 43.6367 59.3857C47.7617 59.3857 51.1367 62.7607 51.1367 66.8857Z" fill="#373737"/>
</svg>
