<svg width="88" height="89" viewBox="0 0 88 89" fill="none" xmlns="http://www.w3.org/2000/svg">
<path d="M0 44.0313C0 27.1993 0 18.7832 3.74969 12.5805C5.92731 8.97823 8.94698 5.95856 12.5492 3.78094C18.752 0.03125 27.168 0.03125 44 0.03125C60.832 0.03125 69.248 0.03125 75.4508 3.78094C79.053 5.95856 82.0727 8.97823 84.2503 12.5805C88 18.7832 88 27.1993 88 44.0313C88 60.8634 88 69.2795 84.2503 75.4822C82.0727 79.0844 79.053 82.1041 75.4508 84.2817C69.248 88.0314 60.832 88.0314 44 88.0314C27.168 88.0314 18.752 88.0314 12.5492 84.2817C8.94698 82.1041 5.92731 79.0844 3.74969 75.4822C0 69.2795 0 60.8634 0 44.0313Z" fill="#E2DAC2"/>
<path d="M45.166 51.0719C23.791 51.0719 7.41602 42.1969 7.41602 62.0719C7.41602 78.072 28.541 82.447 44.666 82.447C63.416 82.447 82.416 78.072 82.416 62.0719C82.416 42.1969 67.166 51.0719 45.166 51.0719Z" fill="#89664C"/>
<path d="M44.541 31.0723C32.541 31.0723 13.916 32.4473 13.916 46.8223C13.916 67.8223 75.791 67.8223 75.791 46.8223C75.916 32.4473 57.291 31.0723 44.541 31.0723Z" fill="#9B7861"/>
<path d="M66.1657 25.8219C60.4157 12.9468 33.1657 26.1969 37.9157 10.5718C38.6657 8.19682 38.5407 7.19682 36.7907 7.57182C27.0407 9.57183 19.9157 19.5718 22.4157 27.9469C30.4157 54.6969 74.0407 43.3219 66.1657 25.8219Z" fill="#A88673"/>
<path d="M40.9141 47.8223C40.9141 52.8223 36.9141 56.8223 31.9141 56.8223C26.9141 56.8223 22.9141 52.8223 22.9141 47.8223C22.9141 42.8223 26.9141 38.8223 31.9141 38.8223C36.9141 38.8223 40.9141 42.8223 40.9141 47.8223Z" fill="white"/>
<path d="M32.416 49.3457C34.9013 49.3457 36.916 47.331 36.916 44.8457C36.916 42.3604 34.9013 40.3457 32.416 40.3457C29.9307 40.3457 27.916 42.3604 27.916 44.8457C27.916 47.331 29.9307 49.3457 32.416 49.3457Z" fill="#373737"/>
<path d="M66.916 47.8223C66.916 52.8223 62.916 56.8223 57.916 56.8223C52.916 56.8223 48.916 52.8223 48.916 47.8223C48.916 42.8223 52.916 38.8223 57.916 38.8223C62.791 38.8223 66.916 42.8223 66.916 47.8223Z" fill="white"/>
<path d="M57.9512 49.3457C60.4365 49.3457 62.4512 47.331 62.4512 44.8457C62.4512 42.3604 60.4365 40.3457 57.9512 40.3457C55.4659 40.3457 53.4512 42.3604 53.4512 44.8457C53.4512 47.331 55.4659 49.3457 57.9512 49.3457Z" fill="#373737"/>
<path d="M52.416 68.1973C52.416 72.3223 49.041 75.6973 44.916 75.6973C40.791 75.6973 37.416 72.3223 37.416 68.1973C37.416 64.0723 40.791 60.6973 44.916 60.6973C49.041 60.6973 52.416 64.0723 52.416 68.1973Z" fill="#373737"/>
</svg>
