<?xml version="1.0" encoding="UTF-8" standalone="no"?>
<!-- Created with Inkscape (http://www.inkscape.org/) -->

<svg
   width="77.233498mm"
   height="20.893909mm"
   viewBox="0 0 77.233498 20.893909"
   version="1.1"
   id="svg5"
   inkscape:version="1.1.2 (0a00cf5339, 2022-02-04)"
   sodipodi:docname="totp-logo-path.svg"
   xmlns:inkscape="http://www.inkscape.org/namespaces/inkscape"
   xmlns:sodipodi="http://sodipodi.sourceforge.net/DTD/sodipodi-0.dtd"
   xmlns="http://www.w3.org/2000/svg"
   xmlns:svg="http://www.w3.org/2000/svg">
  <sodipodi:namedview
     id="namedview7"
     pagecolor="#ffffff"
     bordercolor="#666666"
     borderopacity="1.0"
     inkscape:pageshadow="2"
     inkscape:pageopacity="0.0"
     inkscape:pagecheckerboard="0"
     inkscape:document-units="mm"
     showgrid="true"
     inkscape:zoom="3.1195292"
     inkscape:cx="110.27305"
     inkscape:cy="40.871552"
     inkscape:window-width="1920"
     inkscape:window-height="2096"
     inkscape:window-x="1920"
     inkscape:window-y="27"
     inkscape:window-maximized="0"
     inkscape:current-layer="layer1">
    <inkscape:grid
       type="xygrid"
       id="grid37569"
       originx="-20.367449"
       originy="-70.47986" />
  </sodipodi:namedview>
  <defs
     id="defs2" />
  <g
     inkscape:label="Layer 1"
     inkscape:groupmode="layer"
     id="layer1"
     transform="translate(-20.367448,-70.479866)">
    <g
       aria-label="TOP"
       id="text1772"
       style="font-size:12.4354px;line-height:1.25;letter-spacing:0px;word-spacing:0px;stroke-width:0.264583">
      <path
         d="m 49.288721,72.643626 h -2.536822 v 6.715116 h -2.424903 v -6.715116 h -2.549257 v -2.114018 h 7.510982 z"
         style="font-family:'Raleway Thin';-inkscape-font-specification:'Raleway Thin, @wght=900';font-variation-settings:'wght' 900"
         id="path37626" />
      <path
         d="m 54.014136,79.433354 q -1.007267,0 -1.828003,-0.373062 -0.820737,-0.385497 -1.417636,-1.019703 -0.584464,-0.64664 -0.907784,-1.442506 -0.310885,-0.808301 -0.310885,-1.666344 0,-0.882913 0.335756,-1.678779 0.335755,-0.795865 0.932655,-1.417635 0.609334,-0.634206 1.430071,-0.994832 0.833171,-0.360627 1.815568,-0.360627 1.007267,0 1.828004,0.385498 0.820736,0.373062 1.4052,1.019702 0.584464,0.646641 0.895349,1.454942 0.32332,0.795866 0.32332,1.641473 0,0.870478 -0.335756,1.666344 -0.32332,0.795865 -0.932655,1.430071 -0.596899,0.62177 -1.417635,0.994832 -0.820737,0.360626 -1.815569,0.360626 z M 52.012037,74.95661 q 0,0.447675 0.124354,0.870478 0.124354,0.410368 0.373062,0.746124 0.248708,0.323321 0.62177,0.522287 0.385497,0.186531 0.907784,0.186531 0.522287,0 0.907784,-0.198966 0.385498,-0.198967 0.62177,-0.534723 0.248708,-0.348191 0.360627,-0.758559 0.124354,-0.422804 0.124354,-0.858043 0,-0.447674 -0.124354,-0.858042 -0.124354,-0.410368 -0.373062,-0.733689 -0.248708,-0.335756 -0.634205,-0.522287 -0.385498,-0.186531 -0.895349,-0.186531 -0.522287,0 -0.907784,0.198967 -0.373062,0.198966 -0.62177,0.534722 -0.248708,0.32332 -0.373062,0.746124 -0.111919,0.410368 -0.111919,0.845607 z"
         style="font-family:'Raleway Thin';-inkscape-font-specification:'Raleway Thin, @wght=900';font-variation-settings:'wght' 900"
         id="path37628" />
      <path
         d="m 59.547881,79.358742 v -8.829134 h 3.805233 q 0.646641,0 1.193798,0.261143 0.547158,0.261144 0.945091,0.708818 0.397932,0.435239 0.609334,0.982397 0.223837,0.547157 0.223837,1.10675 0,0.78343 -0.373062,1.479813 -0.360626,0.696382 -1.019702,1.144057 -0.646641,0.435239 -1.517119,0.435239 h -1.442507 v 2.710917 z m 2.424903,-4.824935 h 1.280847 q 0.149224,0 0.286014,-0.08705 0.136789,-0.08705 0.223837,-0.29845 0.09948,-0.211402 0.09948,-0.559593 0,-0.373062 -0.111918,-0.572028 -0.09948,-0.211402 -0.261144,-0.286014 -0.149225,-0.08705 -0.298449,-0.08705 h -1.21867 z"
         style="font-family:'Raleway Thin';-inkscape-font-specification:'Raleway Thin, @wght=900';font-variation-settings:'wght' 900"
         id="path37630" />
    </g>
    <g
       aria-label="of
"
       id="text6220"
       style="font-size:10.5833px;line-height:1.25;letter-spacing:0px;word-spacing:0px;stroke-width:0.264583">
      <path
         d="m 70.899399,79.388883 q -0.524933,0 -0.943239,-0.172244 -0.418306,-0.180446 -0.713581,-0.492125 -0.287072,-0.311679 -0.442912,-0.713581 -0.155839,-0.401902 -0.155839,-0.844814 0,-0.451114 0.155839,-0.853016 0.15584,-0.401902 0.442912,-0.713581 0.295275,-0.311679 0.713581,-0.483923 0.418306,-0.180446 0.943239,-0.180446 0.524934,0 0.935038,0.180446 0.418306,0.172244 0.713581,0.483923 0.295274,0.311679 0.442912,0.713581 0.155839,0.401902 0.155839,0.853016 0,0.442912 -0.155839,0.844814 -0.147638,0.401902 -0.442912,0.713581 -0.287073,0.311679 -0.705379,0.492125 -0.418306,0.172244 -0.94324,0.172244 z m -1.123684,-2.222764 q 0,0.377296 0.147637,0.672571 0.147637,0.287072 0.401902,0.451114 0.254264,0.164042 0.574145,0.164042 0.31168,0 0.565944,-0.164042 0.254264,-0.172244 0.401902,-0.459316 0.155839,-0.295275 0.155839,-0.672571 0,-0.369094 -0.155839,-0.664368 -0.147638,-0.295275 -0.401902,-0.459317 -0.254264,-0.164042 -0.565944,-0.164042 -0.319881,0 -0.574145,0.172244 -0.254265,0.164042 -0.401902,0.459317 -0.147637,0.287072 -0.147637,0.664368 z"
         style="font-size:8.20208px;font-family:'Raleway Thin';-inkscape-font-specification:'Raleway Thin, @wght=700';font-variation-settings:'wght' 700"
         id="path37621" />
      <path
         d="m 74.106881,79.306862 v -3.23162 H 73.540937 V 75.23863 h 0.565944 v -0.262466 q 0,-0.533135 0.172243,-0.918633 0.180446,-0.3937 0.500327,-0.606954 0.328083,-0.213254 0.762794,-0.213254 0.262466,0 0.524933,0.06562 0.270668,0.06562 0.533135,0.188648 l -0.221456,0.82841 q -0.123032,-0.06562 -0.287073,-0.106627 -0.164042,-0.04921 -0.311679,-0.04921 -0.278871,0 -0.426508,0.19685 -0.147638,0.19685 -0.147638,0.574145 v 0.303477 h 1.049866 v 0.836612 h -1.049866 v 3.23162 z"
         style="font-size:8.20208px;font-family:'Raleway Thin';-inkscape-font-specification:'Raleway Thin, @wght=700';font-variation-settings:'wght' 700"
         id="path37623" />
    </g>
    <g
       aria-label="the
"
       id="text8172"
       style="font-size:10.5833px;line-height:1.25;letter-spacing:0px;word-spacing:0px;stroke-width:0.264583">
      <path
         d="m 48.386079,87.616434 q -0.139436,0.05742 -0.336285,0.131234 -0.19685,0.07382 -0.426509,0.114829 -0.221456,0.04921 -0.451114,0.04921 -0.303477,0 -0.557741,-0.106627 -0.254265,-0.106627 -0.410104,-0.336285 -0.147638,-0.23786 -0.147638,-0.615156 v -2.468826 h -0.565943 v -0.844814 h 0.565943 v -1.394354 h 1.099079 v 1.394354 h 0.902229 v 0.844814 h -0.902229 v 2.099732 q 0.0082,0.221457 0.123031,0.319882 0.114829,0.09843 0.287073,0.09843 0.172244,0 0.336285,-0.05742 0.164042,-0.05742 0.262467,-0.09843 z"
         style="font-size:8.20208px;font-family:'Raleway Thin';-inkscape-font-specification:'Raleway Thin, @wght=700';font-variation-settings:'wght' 700"
         id="path37614" />
      <path
         d="m 52.954628,87.837891 h -1.099079 v -2.411412 q 0,-0.500327 -0.19685,-0.746389 -0.188648,-0.246062 -0.524933,-0.246062 -0.19685,0 -0.418306,0.114829 -0.221456,0.114829 -0.401902,0.319881 -0.172243,0.19685 -0.254264,0.459316 v 2.509837 h -1.099079 v -5.987519 h 1.099079 v 2.485231 q 0.23786,-0.410104 0.647964,-0.639763 0.410104,-0.229658 0.894027,-0.229658 0.418306,0 0.680772,0.147638 0.262467,0.139435 0.410104,0.385497 0.147638,0.237861 0.205052,0.541338 0.05741,0.295274 0.05741,0.615156 z"
         style="font-size:8.20208px;font-family:'Raleway Thin';-inkscape-font-specification:'Raleway Thin, @wght=700';font-variation-settings:'wght' 700"
         id="path37616" />
      <path
         d="m 55.907362,87.919911 q -0.516731,0 -0.935037,-0.172243 -0.418306,-0.180446 -0.713581,-0.483923 -0.295275,-0.311679 -0.459316,-0.705379 -0.15584,-0.401902 -0.15584,-0.844814 0,-0.615156 0.270669,-1.123685 0.278871,-0.508529 0.787399,-0.812006 0.516731,-0.311679 1.213908,-0.311679 0.705379,0 1.205706,0.311679 0.500327,0.303477 0.762793,0.812006 0.270669,0.500327 0.270669,1.082675 0,0.09842 -0.0082,0.205052 -0.0082,0.09842 -0.0164,0.164041 H 54.80829 q 0.03281,0.328083 0.188647,0.574146 0.164042,0.246062 0.410104,0.377295 0.254265,0.123032 0.541338,0.123032 0.328083,0 0.615156,-0.15584 0.295274,-0.164042 0.401901,-0.426508 l 0.94324,0.262466 q -0.15584,0.328084 -0.451115,0.582348 -0.287073,0.254265 -0.680772,0.401902 -0.3937,0.139435 -0.869421,0.139435 z m -1.123685,-2.575453 h 2.24737 q -0.03281,-0.328083 -0.188648,-0.565943 -0.147637,-0.246063 -0.3937,-0.377296 -0.246062,-0.139435 -0.549539,-0.139435 -0.295275,0 -0.541337,0.139435 -0.23786,0.131233 -0.3937,0.377296 -0.147637,0.23786 -0.180446,0.565943 z"
         style="font-size:8.20208px;font-family:'Raleway Thin';-inkscape-font-specification:'Raleway Thin, @wght=700';font-variation-settings:'wght' 700"
         id="path37618" />
    </g>
    <g
       aria-label="Poops
"
       id="text8970"
       style="font-size:10.5833px;line-height:1.25;letter-spacing:0px;word-spacing:0px;stroke-width:0.264583">
      <path
         d="m 63.988217,87.109767 h -1.754181 v 2.037549 h -2.69874 v -8.433563 h 4.250515 q 2.901146,0 2.901146,3.117045 0,1.7137 -0.755647,2.536816 -0.283368,0.310355 -0.782635,0.526254 -0.499267,0.215899 -1.160458,0.215899 z m -1.754181,-4.237022 v 2.07803 h 0.62071 q 0.485773,0 0.701673,-0.09446 0.229392,-0.107949 0.229392,-0.472279 v -0.944559 q 0,-0.36433 -0.229392,-0.458786 -0.2159,-0.10795 -0.701673,-0.10795 z"
         style="font-size:13.4937px;font-family:'Changa One';-inkscape-font-specification:'Changa One';fill:#b9664c"
         id="path37603" />
      <path
         d="m 68.063291,88.472631 q -0.83661,-0.890584 -0.83661,-2.69874 0,-1.808156 0.83661,-2.685246 0.850103,-0.890585 2.739221,-0.890585 1.889118,0 2.725727,0.890585 0.850103,0.87709 0.850103,2.685246 0,1.808156 -0.850103,2.69874 -0.836609,0.87709 -2.725727,0.87709 -1.889118,0 -2.739221,-0.87709 z m 2.064536,-3.737755 v 2.644765 h 0.418305 q 0.485773,0 0.701672,-0.09446 0.229393,-0.107949 0.229393,-0.472279 v -2.644765 h -0.418305 q -0.485773,0 -0.715166,0.107949 -0.215899,0.09446 -0.215899,0.458786 z"
         style="font-size:13.4937px;font-family:'Changa One';-inkscape-font-specification:'Changa One';fill:#b9664c"
         id="path37605" />
      <path
         d="m 76.02455,88.472631 q -0.836609,-0.890584 -0.836609,-2.69874 0,-1.808156 0.836609,-2.685246 0.850103,-0.890585 2.739221,-0.890585 1.889118,0 2.725728,0.890585 0.850103,0.87709 0.850103,2.685246 0,1.808156 -0.850103,2.69874 -0.83661,0.87709 -2.725728,0.87709 -1.889118,0 -2.739221,-0.87709 z m 2.064536,-3.737755 v 2.644765 h 0.418305 q 0.485773,0 0.701672,-0.09446 0.229393,-0.107949 0.229393,-0.472279 v -2.644765 h -0.418304 q -0.485774,0 -0.715167,0.107949 -0.215899,0.09446 -0.215899,0.458786 z"
         style="font-size:13.4937px;font-family:'Changa One';-inkscape-font-specification:'Changa One';fill:#b9664c"
         id="path37607" />
      <path
         d="m 83.419074,82.400466 h 1.34937 l 0.499266,0.674685 q 0.593723,-0.877091 2.199474,-0.877091 0.823115,0 1.416838,0.310356 0.593723,0.310355 0.904078,0.850103 0.580229,1.012027 0.580229,2.415372 0,1.7137 -0.742153,2.59079 -0.296862,0.337343 -0.796129,0.566736 -0.499267,0.215899 -1.160458,0.215899 h -1.551775 v 2.024055 l -2.69874,0.202405 z m 2.69874,2.266942 v 2.712233 h 0.418304 q 0.485773,0 0.701673,-0.09446 0.229393,-0.107949 0.229393,-0.472279 v -2.644765 h -0.418305 q -0.296862,0 -0.47228,0.02699 -0.175418,0.02699 -0.310355,0.148431 -0.134937,0.107949 -0.14843,0.323849 z"
         style="font-size:13.4937px;font-family:'Changa One';-inkscape-font-specification:'Changa One';fill:#b9664c"
         id="path37609" />
      <path
         d="m 92.082019,82.67034 q 0.877091,-0.47228 2.388385,-0.47228 1.511295,0 2.779702,0.418305 l -0.310355,1.835143 q -1.052508,-0.296861 -2.105017,-0.296861 -0.323849,0 -0.917571,0.05398 v 0.431798 q 2.185979,0 2.968614,0.647698 0.391317,0.323849 0.553241,0.715166 0.161925,0.377823 0.161925,0.931065 0,0.539748 -0.134937,0.971547 -0.121444,0.431798 -0.391318,0.688178 -0.25638,0.256381 -0.539748,0.418305 -0.283367,0.161924 -0.742153,0.229393 -0.715166,0.107949 -1.659725,0.107949 -1.673219,0 -3.022589,-0.391317 l 0.337342,-1.916105 q 1.133471,0.350836 2.455854,0.350836 0.607216,0 1.106483,-0.05397 v -0.431798 q -2.158992,0 -2.982107,-0.566736 -0.809622,-0.566735 -0.809622,-1.875624 0,-1.322383 0.863596,-1.794662 z"
         style="font-size:13.4937px;font-family:'Changa One';-inkscape-font-specification:'Changa One';fill:#b9664c"
         id="path37611" />
    </g>
    <g
       id="g37999"
       transform="translate(0.77853514,-6.2444946)">
      <path
         d="m 29.576902,88.937543 c -5.655442,0 -9.987989,-2.348177 -9.987989,2.910417 0,4.233333 5.589317,5.390885 9.855697,5.390885 4.960938,0 9.987994,-1.157552 9.987994,-5.390885 0,-5.258594 -4.034869,-2.910417 -9.855702,-2.910417 z"
         fill="#89664c"
         id="path37763"
         style="stroke-width:0.264583" />
      <path
         d="m 29.411537,83.645983 c -3.174973,0 -8.102838,0.363802 -8.102838,4.167187 0,5.55625 16.371067,5.55625 16.371067,0 0.03307,-3.803385 -4.894791,-4.167187 -8.268229,-4.167187 z"
         fill="#9b7861"
         id="path37765"
         style="stroke-width:0.264583" />
      <path
         d="m 35.133072,82.256814 c -1.521354,-3.40651 -8.73125,0.09922 -7.474479,-4.034903 0.198438,-0.628386 0.165365,-0.892969 -0.297656,-0.79375 -2.579687,0.529166 -4.464817,3.175008 -3.803359,5.390893 2.11664,7.077604 13.659062,4.067969 11.575494,-0.56224 z"
         fill="#a88673"
         id="path37767"
         style="stroke-width:0.264583" />
      <path
         d="m 28.45192,88.077753 c 0,1.322917 -1.058333,2.38125 -2.38125,2.38125 -1.32289,0 -2.381224,-1.058333 -2.381224,-2.38125 0,-1.322916 1.058334,-2.38125 2.381224,-2.38125 1.322917,0 2.38125,1.058334 2.38125,2.38125 z"
         fill="#ffffff"
         id="path37769"
         style="stroke-width:0.264583" />
      <path
         d="m 26.732657,90.068346 c 0.657569,0 1.190625,-0.533082 1.190625,-1.190625 0,-0.657569 -0.533056,-1.190625 -1.190625,-1.190625 -0.657569,0 -1.190625,0.533056 -1.190625,1.190625 0,0.657543 0.533056,1.190625 1.190625,1.190625 z"
         fill="#373737"
         id="path37771"
         style="stroke-width:0.264583" />
      <path
         d="m 35.331616,88.077753 c 0,1.322917 -1.058334,2.38125 -2.38125,2.38125 -1.322917,0 -2.38125,-1.058333 -2.38125,-2.38125 0,-1.322916 1.058333,-2.38125 2.38125,-2.38125 1.289843,0 2.38125,1.058334 2.38125,2.38125 z"
         fill="#ffffff"
         id="path37773"
         style="stroke-width:0.264583" />
      <path
         d="m 33.488846,90.068346 c 0.657542,0 1.190625,-0.533082 1.190625,-1.190625 0,-0.657569 -0.533083,-1.190625 -1.190625,-1.190625 -0.657569,0 -1.190625,0.533056 -1.190625,1.190625 0,0.657543 0.533056,1.190625 1.190625,1.190625 z"
         fill="#373737"
         id="path37775"
         style="stroke-width:0.264583" />
      <path
         d="m 31.495157,93.468374 c 0,1.091406 -0.892968,1.984375 -1.984375,1.984375 -1.091406,0 -1.984375,-0.892969 -1.984375,-1.984375 0,-1.091406 0.892969,-1.984375 1.984375,-1.984375 1.091407,0 1.984375,0.892969 1.984375,1.984375 z"
         fill="#373737"
         id="path37777"
         style="stroke-width:0.264583" />
    </g>
  </g>
</svg>
